<svg aria-hidden="true" style="position: absolute; width: 0; height: 0; overflow: hidden;" version="1.1" xmlns="http://www.w3.org/2000/svg" xmlns:xlink="http://www.w3.org/1999/xlink">
<defs>
<symbol id="arrow-left" viewBox="0 0 32 32">
<path fill="#fff" style="fill: var(--color1, #fff)" opacity="0.2" d="M32 16c0 8.837-7.163 16-16 16s-16-7.163-16-16c0-8.837 7.163-16 16-16s16 7.163 16 16z"></path>
<path fill="none" stroke="#000" style="stroke: var(--color2, #000)" stroke-linejoin="miter" stroke-linecap="butt" stroke-miterlimit="4" stroke-width="1.7143" d="M13.714 12.571l4.571 4.571-4.571 4.571"></path>
</symbol>
<symbol id="barometer" viewBox="0 0 32 32">
<path d="M18.489 4.12c0.206-0.391 0.324-0.836 0.324-1.308 0-1.551-1.262-2.813-2.813-2.813s-2.813 1.262-2.813 2.813c0 0.472 0.117 0.917 0.324 1.308-6.564 1.178-11.561 6.931-11.561 13.829 0 7.747 6.303 14.050 14.050 14.050s14.050-6.303 14.050-14.050c0-6.898-4.997-12.651-11.561-13.829zM16 1.875c0.517 0 0.938 0.421 0.938 0.938s-0.421 0.938-0.938 0.938c-0.517 0-0.938-0.421-0.938-0.938s0.421-0.938 0.938-0.938zM16 30.125c-6.713 0-12.175-5.462-12.175-12.175s5.462-12.175 12.175-12.175c6.713 0 12.175 5.462 12.175 12.175s-5.462 12.175-12.175 12.175z"></path>
<path d="M23.332 10.69c-0.013-0.015-0.026-0.030-0.040-0.044s-0.031-0.029-0.047-0.042c-1.866-1.84-4.426-2.978-7.245-2.978-2.832 0-5.4 1.146-7.267 2.998-0.008 0.008-0.017 0.014-0.025 0.022-0.007 0.007-0.012 0.014-0.019 0.020-1.862 1.869-3.014 4.444-3.014 7.284 0 0.518 0.42 0.938 0.938 0.938h1.063c0.518 0 0.938-0.42 0.938-0.938s-0.42-0.938-0.938-0.938h-0.073c0.181-1.631 0.828-3.124 1.805-4.342l0.052 0.052c0.183 0.183 0.423 0.275 0.663 0.275s0.48-0.091 0.663-0.275c0.366-0.366 0.366-0.96 0-1.326l-0.050-0.051c1.215-0.971 2.703-1.614 4.328-1.794v0.073c0 0.518 0.42 0.938 0.937 0.938s0.938-0.42 0.938-0.938v-0.073c1.625 0.18 3.112 0.824 4.327 1.795l-0.050 0.050c-0.366 0.366-0.366 0.96 0 1.326 0.183 0.183 0.423 0.275 0.663 0.275s0.48-0.092 0.663-0.275l0.051-0.051c0.975 1.214 1.621 2.703 1.804 4.329h-0.084c-0.518 0-0.938 0.42-0.938 0.937s0.42 0.938 0.938 0.938c0 0 1.076-0 1.076-0 0.518-0.001 0.937-0.421 0.936-0.939-0.004-2.822-1.147-5.383-2.993-7.246z"></path>
<path d="M20.251 13.698c-0.366-0.366-0.96-0.366-1.326 0l-3.915 3.915c-0.433-0.207-0.917-0.303-1.407-0.268-0.516 0.036-0.906 0.484-0.87 1s0.484 0.906 1.001 0.87c0.271-0.019 0.536 0.080 0.728 0.272 0.189 0.189 0.288 0.45 0.273 0.717-0.030 0.517 0.365 0.96 0.882 0.99 0.018 0.001 0.037 0.002 0.055 0.002 0.493 0 0.906-0.385 0.935-0.883 0.028-0.478-0.069-0.95-0.271-1.374l3.915-3.915c0.366-0.366 0.366-0.96 0-1.326z"></path>
<path d="M21.375 24.688h-10.75c-0.518 0-0.938 0.42-0.938 0.937s0.42 0.938 0.938 0.938h10.75c0.518 0 0.938-0.42 0.938-0.938s-0.42-0.937-0.938-0.937z"></path>
</symbol>
<symbol id="clouds-and-sun" viewBox="0 0 32 32">
<path fill="#fdbf00" style="fill: var(--color3, #fdbf00)" d="M19.218 21.205c-3.847 0-6.995-3.112-7.030-6.967-0.036-3.877 3.090-7.060 6.967-7.096 0.022-0 0.044-0 0.066-0 3.847 0 6.995 3.112 7.030 6.967 0.036 3.877-3.090 7.060-6.966 7.096-0.022 0-0.044 0-0.065 0z"></path>
<path fill="#ff8856" style="fill: var(--color4, #ff8856)" d="M19.22 7.142c-0 0-0.001 0-0.001 0v14.063c0.021 0 0.043-0 0.065-0 3.877-0.036 7.002-3.219 6.966-7.096-0.035-3.855-3.183-6.967-7.030-6.967z"></path>
<path fill="#fdbf00" style="fill: var(--color3, #fdbf00)" d="M19.246 5.806c-0.514 0-0.933-0.414-0.937-0.929l-0.023-2.538c-0.005-0.518 0.411-0.941 0.929-0.946h0.009c0.514 0 0.932 0.414 0.937 0.929l0.023 2.538c0.005 0.518-0.411 0.941-0.929 0.946-0.003 0-0.006 0-0.009 0z"></path>
<path fill="#ff8856" style="fill: var(--color4, #ff8856)" d="M28.525 15.026c-0.514 0-0.932-0.414-0.937-0.929-0.005-0.518 0.411-0.941 0.929-0.946l2.547-0.023c0.514 0 0.933 0.414 0.937 0.929 0.005 0.518-0.411 0.941-0.929 0.946l-2.538 0.023c-0.003 0-0.006 0-0.009 0z"></path>
<path fill="#ff8856" style="fill: var(--color4, #ff8856)" d="M25.851 8.471c-0.237 0-0.474-0.089-0.657-0.268-0.369-0.363-0.375-0.956-0.012-1.326l1.778-1.811c0.363-0.369 0.956-0.375 1.326-0.012s0.375 0.956 0.012 1.326l-1.778 1.811c-0.183 0.187-0.426 0.281-0.669 0.281z"></path>
<path fill="#fdbf00" style="fill: var(--color3, #fdbf00)" d="M12.691 8.592c-0.237 0-0.474-0.089-0.657-0.268l-1.811-1.778c-0.369-0.363-0.375-0.956-0.012-1.326s0.956-0.375 1.326-0.012l1.811 1.778c0.369 0.363 0.375 0.956 0.012 1.326-0.184 0.187-0.426 0.281-0.669 0.281z"></path>
<path fill="#ff8856" style="fill: var(--color4, #ff8856)" d="M22.824 6.486c-0.117 0-0.236-0.022-0.352-0.069-0.48-0.194-0.712-0.741-0.517-1.221l0.952-2.352c0.194-0.48 0.741-0.711 1.221-0.517s0.712 0.741 0.517 1.221l-0.952 2.352c-0.148 0.365-0.499 0.586-0.869 0.586z"></path>
<path fill="#ff8856" style="fill: var(--color4, #ff8856)" d="M30.31 19.556c-0.117 0-0.236-0.022-0.351-0.069l-2.352-0.952c-0.48-0.194-0.712-0.741-0.517-1.221s0.741-0.712 1.221-0.517l2.352 0.952c0.48 0.194 0.712 0.741 0.517 1.221-0.148 0.365-0.499 0.586-0.869 0.586z"></path>
<path fill="#fdbf00" style="fill: var(--color3, #fdbf00)" d="M10.706 11.619c-0.117 0-0.236-0.022-0.351-0.069l-2.352-0.952c-0.48-0.194-0.712-0.741-0.517-1.221s0.741-0.711 1.221-0.517l2.352 0.952c0.48 0.194 0.712 0.741 0.517 1.221-0.148 0.365-0.499 0.586-0.869 0.586z"></path>
<path fill="#ff8856" style="fill: var(--color4, #ff8856)" d="M27.901 11.482c-0.365 0-0.712-0.215-0.864-0.572-0.202-0.477 0.021-1.027 0.498-1.229l2.337-0.99c0.477-0.202 1.027 0.021 1.229 0.498s-0.021 1.027-0.498 1.229l-2.337 0.99c-0.119 0.050-0.243 0.074-0.365 0.074z"></path>
<path fill="#fdbf00" style="fill: var(--color3, #fdbf00)" d="M15.702 6.543c-0.365 0-0.712-0.215-0.864-0.572l-0.99-2.337c-0.202-0.477 0.021-1.027 0.497-1.229s1.027 0.021 1.229 0.498l0.99 2.337c0.202 0.477-0.021 1.027-0.498 1.229-0.119 0.051-0.243 0.075-0.365 0.075z"></path>
<path fill="#fff4f4" style="fill: var(--color5, #fff4f4)" d="M13.937 30.607c-1.111 0-2.197-0.383-3.060-1.080-0.459-0.37-0.845-0.82-1.141-1.323-0.64 0.401-1.389 0.623-2.159 0.623-1.824 0-3.393-1.22-3.897-2.905-0.848-0.081-1.658-0.427-2.307-1.001-0.873-0.771-1.374-1.882-1.374-3.047 0-2.116 1.624-3.86 3.692-4.049 0.209-0.676 0.593-1.291 1.123-1.782 0.754-0.698 1.735-1.083 2.763-1.083 0.764 0 1.506 0.218 2.143 0.613 0.295-0.509 0.682-0.965 1.144-1.34 0.865-0.704 1.957-1.091 3.074-1.091s2.209 0.388 3.074 1.091c0.461 0.375 0.848 0.831 1.144 1.34 0.637-0.394 1.379-0.613 2.143-0.613 1.028 0 2.009 0.384 2.763 1.083 0.53 0.491 0.914 1.105 1.123 1.782 0.852 0.079 1.665 0.425 2.317 1.001 0.874 0.771 1.375 1.882 1.375 3.048s-0.501 2.276-1.374 3.047c-0.649 0.573-1.459 0.919-2.307 1.001-0.504 1.684-2.073 2.905-3.897 2.905-0.771 0-1.519-0.222-2.159-0.623-0.296 0.503-0.683 0.953-1.141 1.323-0.863 0.697-1.95 1.080-3.060 1.080z"></path>
<path fill="#f6efea" style="fill: var(--color6, #f6efea)" d="M26.5 18.827c-0.652-0.575-1.465-0.921-2.317-1.001-0.209-0.677-0.593-1.291-1.123-1.782-0.754-0.698-1.735-1.083-2.763-1.083-0.764 0-1.506 0.218-2.143 0.613-0.295-0.509-0.682-0.965-1.144-1.34-0.865-0.704-1.957-1.091-3.074-1.091v17.464c1.111 0 2.197-0.384 3.060-1.080 0.459-0.37 0.845-0.82 1.141-1.323 0.64 0.401 1.389 0.623 2.159 0.623 1.824 0 3.393-1.22 3.897-2.905 0.848-0.081 1.658-0.427 2.307-1.001 0.873-0.771 1.374-1.882 1.374-3.047s-0.501-2.277-1.375-3.048z"></path>
<path fill="#ff8856" style="fill: var(--color4, #ff8856)" d="M20.16 2.322c-0.005-0.515-0.423-0.929-0.937-0.929-0.001 0-0.003 0-0.004 0v4.411c0.009 0 0.018 0.001 0.028 0.001h0.009c0.518-0.005 0.934-0.428 0.929-0.946l-0.023-2.538z"></path>
</symbol>
<symbol id="cloudy" viewBox="0 0 32 32">
<path fill="#eee1dc" style="fill: var(--color7, #eee1dc)" d="M26.888 20.96c-3.317 0-11.015-2.423-14.428-5.445-1.259-1.114-1.897-2.262-1.897-3.411 0-2.55 2.075-4.625 4.625-4.625 0.437 0 0.868 0.061 1.283 0.181 0.626-1.821 2.352-3.114 4.374-3.114 1.671 0 3.199 0.909 4.013 2.325 0.131-0.011 0.262-0.017 0.393-0.017 2.55 0 4.625 2.075 4.625 4.625 0 0.3-0.028 0.596-0.085 0.886 1.349 0.831 2.21 2.324 2.21 3.944 0 1.215-0.489 2.35-1.377 3.194-0.81 0.77-1.923 1.276-3.134 1.424-0.179 0.022-0.38 0.033-0.601 0.033z"></path>
<path fill="#e0d2cd" style="fill: var(--color8, #e0d2cd)" d="M29.79 12.366c0.056-0.29 0.085-0.586 0.085-0.886 0-2.55-2.075-4.625-4.625-4.625-0.131 0-0.263 0.006-0.393 0.017-0.743-1.292-2.079-2.161-3.576-2.304v15.323c2.204 0.673 4.264 1.070 5.607 1.070 0.22 0 0.421-0.011 0.601-0.033 1.211-0.148 2.324-0.654 3.134-1.424 0.888-0.845 1.377-1.979 1.377-3.194 0-1.619-0.861-3.113-2.21-3.944z"></path>
<path fill="#fff4f4" style="fill: var(--color5, #fff4f4)" d="M13.321 27.454c-1.068 0-2.113-0.369-2.943-1.039-0.429-0.346-0.792-0.766-1.074-1.233-0.608 0.371-1.315 0.576-2.042 0.576-1.747 0-3.251-1.162-3.746-2.77-0.806-0.083-1.575-0.416-2.193-0.961-0.841-0.743-1.323-1.813-1.323-2.936 0-2.029 1.55-3.702 3.527-3.898 0.203-0.641 0.57-1.222 1.073-1.688 0.726-0.673 1.671-1.043 2.662-1.043 0.72 0 1.421 0.202 2.026 0.567 0.281-0.473 0.645-0.898 1.077-1.25 0.832-0.677 1.882-1.050 2.956-1.050s2.124 0.373 2.956 1.050c0.432 0.351 0.796 0.776 1.077 1.25 0.605-0.365 1.305-0.567 2.026-0.567 0.99 0 1.936 0.371 2.662 1.043 0.503 0.466 0.87 1.048 1.073 1.689 0.81 0.082 1.582 0.414 2.203 0.961 0.842 0.743 1.325 1.813 1.325 2.937s-0.482 2.193-1.324 2.936c-0.618 0.546-1.386 0.878-2.193 0.961-0.494 1.608-1.999 2.77-3.746 2.77-0.727 0-1.433-0.205-2.042-0.576-0.282 0.468-0.645 0.887-1.074 1.233-0.83 0.67-1.875 1.039-2.943 1.039z"></path>
<path fill="#f6efea" style="fill: var(--color6, #f6efea)" d="M25.317 16.155c-0.62-0.547-1.393-0.88-2.203-0.961-0.203-0.641-0.57-1.223-1.073-1.689-0.726-0.673-1.671-1.043-2.662-1.043-0.72 0-1.421 0.202-2.026 0.567-0.281-0.473-0.645-0.898-1.077-1.25-0.832-0.677-1.882-1.050-2.956-1.050v16.725c1.068 0 2.113-0.369 2.943-1.039 0.429-0.346 0.792-0.766 1.074-1.233 0.608 0.371 1.315 0.576 2.042 0.576 1.747 0 3.251-1.162 3.746-2.77 0.806-0.083 1.575-0.416 2.193-0.961 0.841-0.743 1.324-1.813 1.324-2.936s-0.483-2.194-1.325-2.937z"></path>
</symbol>
<symbol id="cross" viewBox="0 0 32 32">
<path fill="none" stroke="#fff" style="stroke: var(--color1, #fff)" stroke-linejoin="miter" stroke-linecap="butt" stroke-miterlimit="4" stroke-width="4" d="M2.667 2.667l26.667 26.667M2.667 29.333l26.667-26.667"></path>
</symbol>
<symbol id="frosts" viewBox="0 0 32 32">
<path fill="#fdbf00" style="fill: var(--color3, #fdbf00)" d="M16 25.375c-5.169 0-9.375-4.206-9.375-9.375s4.206-9.375 9.375-9.375c0.518 0 0.938 0.42 0.938 0.938v16.875c0 0.518-0.42 0.938-0.938 0.938z"></path>
<path fill="#7dd5f4" style="fill: var(--color9, #7dd5f4)" d="M31.063 15.063h-1.457l0.714-1.237c0.259-0.448 0.105-1.022-0.343-1.281s-1.022-0.105-1.281 0.343l-1.256 2.175h-9.177l6.489-6.489 2.425 0.65c0.081 0.022 0.163 0.032 0.243 0.032 0.414 0 0.793-0.276 0.905-0.695 0.134-0.5-0.163-1.014-0.663-1.148l-1.38-0.37 0.942-0.942c0.366-0.366 0.366-0.96 0-1.326s-0.96-0.366-1.326 0l-0.942 0.942-0.37-1.38c-0.134-0.5-0.648-0.796-1.148-0.663s-0.797 0.648-0.663 1.148l0.65 2.425-6.489 6.489v-9.177l2.175-1.256c0.448-0.259 0.602-0.832 0.343-1.281s-0.832-0.602-1.281-0.343l-1.237 0.714v-1.457c0-0.518-0.42-0.938-0.938-0.938s-0.938 0.42-0.938 0.938v30.125c0 0.518 0.42 0.938 0.938 0.938s0.938-0.42 0.938-0.938v-1.457l1.237 0.714c0.148 0.085 0.309 0.126 0.468 0.126 0.324 0 0.639-0.168 0.813-0.469 0.259-0.448 0.105-1.022-0.343-1.281l-2.175-1.256v-9.177l6.489 6.489-0.65 2.426c-0.134 0.5 0.163 1.014 0.663 1.148 0.081 0.022 0.163 0.032 0.243 0.032 0.414 0 0.793-0.276 0.905-0.695l0.37-1.38 0.942 0.942c0.183 0.183 0.423 0.275 0.663 0.275s0.48-0.092 0.663-0.275c0.366-0.366 0.366-0.96 0-1.326l-0.942-0.942 1.38-0.37c0.5-0.134 0.797-0.648 0.663-1.148s-0.648-0.797-1.148-0.663l-2.425 0.65-6.489-6.489h9.177l1.256 2.175c0.174 0.301 0.489 0.469 0.813 0.469 0.159 0 0.32-0.041 0.468-0.126 0.448-0.259 0.602-0.832 0.343-1.281l-0.714-1.237h1.457c0.518 0 0.938-0.42 0.938-0.938s-0.42-0.938-0.938-0.938z"></path>
<path fill="#fdbf00" style="fill: var(--color3, #fdbf00)" d="M3.941 16.937h-3.003c-0.518 0-0.938-0.42-0.938-0.938s0.42-0.938 0.938-0.938h3.003c0.518 0 0.938 0.42 0.938 0.938s-0.42 0.938-0.938 0.938z"></path>
<path fill="#fdbf00" style="fill: var(--color3, #fdbf00)" d="M7.473 8.41c-0.24 0-0.48-0.091-0.663-0.275l-2.124-2.124c-0.366-0.366-0.366-0.96 0-1.326s0.96-0.366 1.326 0l2.124 2.124c0.366 0.366 0.366 0.96 0 1.326-0.183 0.183-0.423 0.275-0.663 0.275z"></path>
<path fill="#fdbf00" style="fill: var(--color3, #fdbf00)" d="M5.349 27.588c-0.24 0-0.48-0.092-0.663-0.275-0.366-0.366-0.366-0.96 0-1.326l2.124-2.124c0.366-0.366 0.96-0.366 1.326 0s0.366 0.96 0 1.326l-2.124 2.124c-0.183 0.183-0.423 0.275-0.663 0.275z"></path>
<path fill="#fdbf00" style="fill: var(--color3, #fdbf00)" d="M11.481 5.758c-0.371 0-0.722-0.221-0.869-0.586l-1.126-2.784c-0.194-0.48 0.038-1.026 0.518-1.22s1.027 0.038 1.221 0.518l1.126 2.784c0.194 0.48-0.038 1.027-0.518 1.22-0.115 0.047-0.234 0.069-0.351 0.069z"></path>
<path fill="#fdbf00" style="fill: var(--color3, #fdbf00)" d="M2.036 22.583c-0.371 0-0.722-0.222-0.869-0.586-0.194-0.48 0.038-1.026 0.518-1.22l2.784-1.126c0.48-0.194 1.027 0.038 1.22 0.518s-0.038 1.026-0.518 1.22l-2.784 1.126c-0.115 0.047-0.234 0.069-0.351 0.069z"></path>
<path fill="#fdbf00" style="fill: var(--color3, #fdbf00)" d="M10.288 30.875c-0.118 0-0.239-0.023-0.355-0.070-0.479-0.196-0.708-0.744-0.512-1.223l1.139-2.779c0.196-0.479 0.744-0.708 1.223-0.512s0.708 0.744 0.512 1.223l-1.139 2.779c-0.149 0.363-0.499 0.582-0.868 0.582z"></path>
<path fill="#fdbf00" style="fill: var(--color3, #fdbf00)" d="M4.841 12.365c-0.118 0-0.239-0.023-0.355-0.070l-2.779-1.139c-0.479-0.196-0.708-0.744-0.512-1.223s0.744-0.708 1.223-0.512l2.779 1.139c0.479 0.196 0.708 0.744 0.512 1.223-0.149 0.363-0.499 0.582-0.868 0.582z"></path>
<path fill="#4793ff" style="fill: var(--color10, #4793ff)" d="M31.063 15.063h-1.457l0.714-1.237c0.259-0.448 0.105-1.022-0.343-1.281s-1.022-0.105-1.281 0.343l-1.256 2.175h-9.177l6.489-6.489 2.425 0.65c0.081 0.022 0.163 0.032 0.243 0.032 0.414 0 0.793-0.276 0.905-0.695 0.134-0.5-0.163-1.014-0.663-1.148l-1.38-0.37 0.942-0.942c0.366-0.366 0.366-0.96 0-1.326s-0.96-0.366-1.326 0l-0.942 0.942-0.37-1.38c-0.134-0.5-0.648-0.796-1.148-0.663s-0.797 0.648-0.663 1.148l0.65 2.425-6.489 6.489v-9.177l2.175-1.256c0.448-0.259 0.602-0.832 0.343-1.281s-0.832-0.602-1.281-0.343l-1.237 0.714v-1.457c0-0.518-0.42-0.938-0.938-0.938v32c0.518 0 0.938-0.42 0.938-0.938v-1.457l1.237 0.714c0.148 0.085 0.309 0.126 0.468 0.126 0.324 0 0.639-0.168 0.813-0.469 0.259-0.448 0.105-1.022-0.343-1.281l-2.175-1.256v-9.177l6.489 6.489-0.65 2.426c-0.134 0.5 0.163 1.014 0.663 1.148 0.081 0.022 0.163 0.032 0.243 0.032 0.414 0 0.793-0.276 0.905-0.695l0.37-1.38 0.942 0.942c0.183 0.183 0.423 0.275 0.663 0.275s0.48-0.092 0.663-0.275c0.366-0.366 0.366-0.96 0-1.326l-0.942-0.942 1.38-0.37c0.5-0.134 0.797-0.648 0.663-1.148s-0.648-0.797-1.148-0.663l-2.425 0.65-6.489-6.489h9.177l1.256 2.175c0.174 0.301 0.489 0.469 0.813 0.469 0.159 0 0.32-0.041 0.468-0.126 0.448-0.259 0.602-0.832 0.343-1.281l-0.714-1.237h1.457c0.518 0 0.938-0.42 0.938-0.938s-0.42-0.938-0.938-0.938z"></path>
</symbol>
<symbol id="humidity" viewBox="0 0 32 32">
<path d="M28.62 9.399c-0.597-1.021-1.234-1.987-1.796-2.719-0.828-1.079-1.317-1.461-1.868-1.461-0.523 0-0.948 0.366-1.426 0.916-0.352 0.405-0.771 0.966-1.212 1.624-0.633 0.942-1.24 1.969-1.759 2.965-0.556-1.066-1.076-1.985-1.461-2.643-1.203-2.059-2.486-4.001-3.613-5.47-1.848-2.409-2.542-2.61-3.049-2.61s-1.201 0.202-3.049 2.611c-1.127 1.469-2.41 3.411-3.612 5.47-1.446 2.474-4.808 8.639-4.808 12.451 0 6.324 5.145 11.469 11.469 11.469 5.934 0 10.829-4.529 11.411-10.312 0.364 0.067 0.734 0.102 1.108 0.102 3.35 0 6.075-2.725 6.075-6.075 0-1.906-1.511-4.776-2.411-6.316v0zM12.437 30.125c-5.29 0-9.594-4.304-9.594-9.594 0-2.233 1.6-6.358 4.279-11.034 2.392-4.173 4.524-6.857 5.315-7.519 0.791 0.662 2.923 3.345 5.315 7.519 2.679 4.676 4.279 8.8 4.279 11.034 0 5.29-4.304 9.594-9.594 9.594zM24.956 19.915c-0.371 0-0.736-0.049-1.090-0.143-0.207-2.066-1.186-4.634-2.256-6.925 1.043-2.328 2.589-4.622 3.345-5.498 0.477 0.55 1.322 1.709 2.262 3.37 1.214 2.147 1.939 4.014 1.939 4.995 0 2.316-1.884 4.2-4.2 4.2v0z"></path>
<path d="M15.011 16.073c-0.448-0.259-1.022-0.105-1.281 0.343l-4.21 7.293c-0.259 0.448-0.105 1.022 0.343 1.281 0.148 0.085 0.309 0.126 0.468 0.126 0.324 0 0.639-0.168 0.813-0.469l4.21-7.293c0.259-0.448 0.105-1.022-0.343-1.281v0z"></path>
<path d="M10.094 17.937c0-0.516-0.421-0.938-0.938-0.938s-0.937 0.421-0.937 0.938c0 0.516 0.421 0.938 0.937 0.938s0.938-0.421 0.938-0.938z"></path>
<path d="M15.406 22.312c-0.516 0-0.938 0.421-0.938 0.938s0.421 0.938 0.938 0.938c0.516 0 0.938-0.421 0.938-0.938s-0.421-0.938-0.938-0.938z"></path>
</symbol>
<symbol id="location" viewBox="0 0 32 32">
<path fill="none" stroke="#aeb3b9" style="stroke: var(--color11, #aeb3b9)" stroke-linejoin="miter" stroke-linecap="butt" stroke-miterlimit="4" stroke-width="2.9091" d="M27.636 16c0 6.427-5.21 11.636-11.636 11.636s-11.636-5.21-11.636-11.636c0-6.427 5.21-11.636 11.636-11.636s11.636 5.21 11.636 11.636z"></path>
<path fill="#aeb3b9" style="fill: var(--color11, #aeb3b9)" d="M14.545 0h2.909v5.818h-2.909v-5.818z"></path>
<path fill="#aeb3b9" style="fill: var(--color11, #aeb3b9)" d="M14.545 26.182h2.909v5.818h-2.909v-5.818z"></path>
<path fill="#aeb3b9" style="fill: var(--color11, #aeb3b9)" d="M5.818 14.545v2.909h-5.818v-2.909h5.818z"></path>
<path fill="#aeb3b9" style="fill: var(--color11, #aeb3b9)" d="M32 14.545v2.909h-5.818v-2.909h5.818z"></path>
</symbol>
<symbol id="rain" viewBox="0 0 32 32">
<path fill="#fff" style="fill: var(--color1, #fff)" d="M29.622 12.588h-2.327c-0.001 0-0.001 0.001-0.002 0.001h-0.995c0.462-0.78 0.727-1.681 0.736-2.653 0-0.24-0.013-0.483-0.044-0.732-0.292-2.357-2.165-4.269-4.517-4.596-0.279-0.039-0.553-0.057-0.823-0.057-0.279 0.004-0.558 0.030-0.828 0.074-0.423 0.074-0.832 0.192-1.215 0.353-0.775-2.505-2.905-4.413-5.537-4.874v0.004c-0.396-0.070-0.81-0.109-1.228-0.109-3.912 0-7.087 3.171-7.087 7.083 0 0.2 0.013 0.401 0.026 0.601-0.453-0.126-0.95-0.161-1.459-0.087-1.573 0.24-2.81 1.555-2.953 3.136-0.065 0.706 0.078 1.372 0.375 1.943-1.002 0.279-1.742 1.202-1.742 2.291 0 0.144 0.013 0.283 0.039 0.418 0.030 0.17 0.078 0.335 0.144 0.488 0.24 0.584 0.706 1.050 1.289 1.289 0.153 0.065 0.318 0.113 0.488 0.144 0.135 0.026 0.274 0.039 0.418 0.039l27.244-0.002c1.308 0 2.378-1.070 2.378-2.378s-1.070-2.378-2.378-2.378zM23.217 5.69c0.016 0.006 0.033 0.012 0.049 0.018-0.016-0.006-0.033-0.012-0.049-0.018zM23.806 5.955c0.019 0.010 0.037 0.021 0.056 0.032-0.019-0.011-0.037-0.022-0.056-0.032zM24.361 6.309c0.008 0.006 0.015 0.013 0.023 0.019-0.008-0.006-0.015-0.013-0.023-0.019zM24.818 13.383l0.001-0.002c0.329-0.058 0.65-0.137 0.967-0.228-0.317 0.091-0.639 0.171-0.969 0.23zM25.43 12.345l0.117-0.199c0.051-0.087 0.097-0.175 0.142-0.265-0.044 0.089-0.090 0.177-0.14 0.263l-0.119 0.2zM26.128 9.313c0.042 0.342 0.043 0.681 0.010 1.013 0.032-0.332 0.031-0.671-0.011-1.013-0.015-0.119-0.035-0.236-0.059-0.353 0.001 0.004 0.003 0.008 0.004 0.013 0.022 0.109 0.044 0.226 0.057 0.34zM25.722 11.819c0.002-0.005 0.004-0.010 0.006-0.015-0.002 0.005-0.004 0.010-0.006 0.015zM25.599 7.726c0.014 0.024 0.027 0.049 0.040 0.074-0.013-0.025-0.027-0.049-0.040-0.074zM25.878 8.321c0.009 0.024 0.017 0.049 0.026 0.074-0.009-0.025-0.017-0.050-0.026-0.074zM25.288 7.244c-0.014-0.019-0.030-0.038-0.044-0.057 0.015 0.019 0.030 0.038 0.044 0.057zM24.857 6.741c-0.007-0.007-0.014-0.013-0.021-0.020 0.007 0.007 0.014 0.013 0.021 0.020zM21.702 5.423c0.201 0 0.41 0.017 0.612 0.044-0.204-0.027-0.41-0.043-0.613-0.043-0.421 0-0.832 0.061-1.23 0.176 0.397-0.114 0.808-0.176 1.23-0.176zM19.459 5.99l0.492-0.209c0.105-0.045 0.213-0.082 0.321-0.118-0.108 0.037-0.217 0.074-0.322 0.119l-0.888 0.38-0.142-0.457 0.142 0.455 0.396-0.17zM13.716 0.933c-0.075-0.010-0.15-0.018-0.226-0.026 0.017 0.002 0.035 0.001 0.052 0.003 0.059 0.006 0.116 0.014 0.173 0.023zM5.503 8.512c-0.077-0.019-0.154-0.035-0.231-0.047 0.036 0.006 0.072 0.009 0.108 0.016 0.040 0.009 0.082 0.020 0.123 0.031zM5.164 8.449c-0.087-0.010-0.174-0.016-0.261-0.018 0.087 0.001 0.174 0.007 0.261 0.018zM4.385 8.475c-0.113 0.020-0.224 0.046-0.332 0.080 0.108-0.035 0.219-0.060 0.332-0.080zM3.202 9.022c-0.085 0.069-0.168 0.141-0.243 0.22 0.044-0.047 0.091-0.095 0.138-0.138 0.033-0.030 0.071-0.054 0.105-0.082zM3.905 8.613c-0.079 0.031-0.158 0.063-0.234 0.101 0.076-0.038 0.154-0.070 0.234-0.101zM3.533 8.794c-0.074 0.043-0.146 0.089-0.215 0.139 0.069-0.050 0.141-0.096 0.215-0.139zM2.497 9.905c0.046-0.092 0.096-0.181 0.151-0.268-0.056 0.086-0.106 0.176-0.151 0.268zM2.925 9.278c-0.076 0.082-0.144 0.17-0.209 0.261 0.028-0.040 0.054-0.083 0.085-0.121 0.042-0.049 0.083-0.094 0.124-0.139zM1.678 13.638c-0.041 0.022-0.082 0.043-0.12 0.069 0.026-0.017 0.050-0.036 0.076-0.051 0.013-0.007 0.030-0.011 0.044-0.018zM1.511 13.738c-0.048 0.034-0.094 0.072-0.138 0.111 0.044-0.040 0.089-0.077 0.138-0.111zM1.332 13.885c-0.052 0.051-0.101 0.105-0.145 0.162 0.044-0.057 0.093-0.111 0.145-0.162zM0.878 14.873c0.003-0.041 0.004-0.082 0.010-0.122-0.006 0.040-0.008 0.081-0.010 0.122zM0.911 14.638c0.008-0.036 0.016-0.071 0.027-0.106-0.011 0.035-0.019 0.070-0.027 0.106zM0.975 14.426c0.014-0.036 0.029-0.070 0.046-0.104-0.016 0.034-0.032 0.069-0.046 0.104zM1.068 14.229c0.023-0.041 0.050-0.080 0.077-0.119-0.027 0.039-0.054 0.078-0.077 0.119zM1.344 16.058c0.125 0.118 0.269 0.217 0.429 0.287-0.084-0.037-0.165-0.078-0.24-0.128-0.067-0.048-0.13-0.102-0.189-0.159zM1.822 16.364c0.070 0.028 0.143 0.051 0.218 0.068-0.075-0.017-0.148-0.040-0.218-0.068zM2.094 16.445c0.092 0.018 0.186 0.029 0.283 0.029l6.599 0.002h-6.597c-0.098 0-0.192-0.012-0.284-0.030z"></path>
<path fill="#fff" style="fill: var(--color1, #fff)" d="M5.036 19.574c0 0-1.412 0.537-1.84 1.546-0.186 0.439-0.028 0.877 0.277 1.156 0.097 0.088 0.207 0.161 0.328 0.212 0.5 0.212 1.159 0.061 1.403-0.517 0.205-0.483 0.174-1.051 0.088-1.514-0.094-0.504-0.256-0.883-0.256-0.883z"></path>
<path fill="#fff" style="fill: var(--color1, #fff)" d="M9.776 23.494c0 0-1.412 0.537-1.84 1.546-0.186 0.439-0.028 0.877 0.277 1.156 0.097 0.088 0.207 0.161 0.328 0.212 0.5 0.212 1.159 0.061 1.403-0.517 0.205-0.483 0.174-1.051 0.088-1.514-0.094-0.504-0.256-0.883-0.256-0.883z"></path>
<path fill="#fff" style="fill: var(--color1, #fff)" d="M13.17 19.081c0 0-1.412 0.537-1.84 1.546-0.186 0.439-0.028 0.877 0.277 1.156 0.097 0.088 0.207 0.161 0.328 0.212 0.5 0.212 1.159 0.061 1.403-0.517 0.205-0.483 0.174-1.051 0.088-1.514-0.095-0.504-0.256-0.883-0.256-0.883z"></path>
<path fill="#fff" style="fill: var(--color1, #fff)" d="M17.456 23.494c0 0-1.412 0.537-1.84 1.546-0.186 0.439-0.028 0.877 0.277 1.156 0.097 0.088 0.207 0.161 0.327 0.212 0.5 0.212 1.159 0.061 1.403-0.517 0.205-0.483 0.174-1.051 0.087-1.514-0.094-0.504-0.256-0.883-0.256-0.883z"></path>
<path fill="#fff" style="fill: var(--color1, #fff)" d="M21.231 19.429c0 0-1.412 0.537-1.84 1.546-0.186 0.439-0.028 0.877 0.277 1.156 0.097 0.088 0.207 0.161 0.328 0.212 0.5 0.212 1.159 0.061 1.403-0.517 0.205-0.483 0.174-1.051 0.087-1.514-0.095-0.504-0.256-0.883-0.256-0.883z"></path>
<path fill="#000" style="fill: var(--color2, #000)" d="M14.070 0.109c-0.109 0.274-0.209 0.549-0.296 0.832-0.078-0.013-0.152-0.022-0.231-0.030-0.231-0.026-0.462-0.039-0.701-0.039-3.428 0-6.212 2.784-6.212 6.212 0 0.179 0.004 0.353 0.022 0.527l0.105 1.242-1.202-0.327c-0.057-0.017-0.118-0.030-0.174-0.044-0.174-0.035-0.348-0.052-0.523-0.052-0.135 0-0.27 0.009-0.405 0.030-0.514 0.078-0.98 0.309-1.355 0.645-0.052 0.048-0.105 0.1-0.152 0.152s-0.096 0.105-0.144 0.161c-0.135 0.17-0.248 0.357-0.34 0.553-0.122 0.261-0.2 0.544-0.227 0.841-0.048 0.51 0.052 1.015 0.283 1.459l0.497 0.954v0.004l-1.037 0.287c-0.122 0.035-0.24 0.083-0.344 0.139-0.462 0.266-0.762 0.762-0.762 1.311 0 0.414 0.17 0.788 0.44 1.063 0.065 0.070 0.144 0.131 0.222 0.187 0.244 0.161 0.531 0.257 0.845 0.257h6.599l-0.871 0.871h-5.728c-0.144 0-0.283-0.013-0.418-0.039-0.17-0.030-0.335-0.078-0.488-0.144-0.584-0.24-1.050-0.706-1.289-1.289-0.065-0.152-0.113-0.318-0.144-0.488-0.026-0.135-0.039-0.274-0.039-0.418 0-1.089 0.741-2.013 1.742-2.291-0.296-0.571-0.44-1.237-0.375-1.943 0.144-1.581 1.381-2.897 2.953-3.136 0.51-0.074 1.006-0.039 1.459 0.087-0.013-0.2-0.026-0.401-0.026-0.601 0-3.912 3.176-7.083 7.087-7.083 0.418 0 0.832 0.039 1.228 0.109z"></path>
<path fill="#efe748" style="fill: var(--color12, #efe748)" d="M20.822 4.626l-1.363 1.363-0.396 0.17-0.288-0.919c-0.714-2.313-2.666-3.951-5.001-4.299 0.087-0.283 0.187-0.558 0.296-0.832v-0.004c2.631 0.462 4.761 2.37 5.537 4.874 0.383-0.161 0.793-0.279 1.215-0.353z"></path>
<path fill="#000" style="fill: var(--color2, #000)" d="M20.822 4.626l-1.363 1.363-0.396 0.17-0.288-0.919c-0.714-2.313-2.666-3.951-5.001-4.299 0.087-0.283 0.187-0.558 0.296-0.832v-0.004c2.631 0.462 4.761 2.37 5.537 4.874 0.383-0.161 0.793-0.279 1.215-0.353z"></path>
<path fill="#000" style="fill: var(--color2, #000)" d="M13.37 4.42c-0.077-1.217 0.073-2.389 0.406-3.48-0.306-0.046-0.618-0.072-0.935-0.072-3.426 0-6.213 2.787-6.213 6.213 0 0.178 0.008 0.354 0.023 0.528l0.104 1.242-1.202-0.329c-0.228-0.062-0.463-0.094-0.697-0.094-0.134 0-0.269 0.010-0.403 0.031-1.178 0.178-2.111 1.169-2.219 2.354-0.047 0.508 0.052 1.013 0.284 1.46l0.496 0.954-1.035 0.288c-0.652 0.181-1.108 0.778-1.108 1.452 0 0.831 0.676 1.507 1.507 1.507h6.6l6.559-6.559c-1.24-1.526-2.035-3.425-2.166-5.494z"></path>
<path fill="#efe748" style="fill: var(--color12, #efe748)" d="M13.37 4.42c0.131 2.069 0.926 3.968 2.166 5.494l3.924-3.924-0.398 0.17-0.286-0.923c-0.717-2.311-2.665-3.949-5-4.298-0.333 1.092-0.482 2.263-0.406 3.48z"></path>
<path fill="#000" style="fill: var(--color2, #000)" d="M13.37 4.42c0.131 2.069 0.926 3.968 2.166 5.494l3.924-3.924-0.398 0.17-0.286-0.923c-0.717-2.311-2.665-3.949-5-4.298-0.333 1.092-0.482 2.263-0.406 3.48z"></path>
<path fill="#000" style="fill: var(--color2, #000)" d="M19.061 6.161l-0.286-0.923c-0.716-2.311-2.665-3.949-5-4.298-0.306-0.046-0.618-0.072-0.935-0.072-3.426 0-6.213 2.787-6.213 6.213 0 0.178 0.008 0.354 0.023 0.528l0.104 1.242-1.202-0.329c-0.228-0.062-0.463-0.094-0.697-0.094-0.134 0-0.269 0.010-0.403 0.031-1.178 0.178-2.111 1.169-2.219 2.354-0.047 0.508 0.052 1.013 0.284 1.46l0.496 0.954-1.035 0.288c-0.652 0.181-1.108 0.778-1.108 1.452 0 0.831 0.676 1.507 1.507 1.507h6.6l10.482-10.482-0.398 0.17z"></path>
<path fill="#c5e5e2" style="fill: var(--color13, #c5e5e2)" d="M32 14.966c0-1.308-1.070-2.378-2.378-2.378h-2.327c-0.775 0.37-1.605 0.64-2.477 0.795l-0.045 0.076h4.849c0.831 0 1.507 0.676 1.507 1.507s-0.676 1.507-1.507 1.507h-20.645l-0.871 0.871h21.516c1.308 0 2.378-1.070 2.378-2.378z"></path>
<path fill="#cfe9e5" style="fill: var(--color14, #cfe9e5)" d="M25.548 12.145c0.501-0.854 0.701-1.83 0.579-2.831-0.013-0.113-0.035-0.231-0.057-0.34-0.357-1.712-1.742-3.106-3.454-3.454-0.087-0.022-0.179-0.035-0.266-0.048-0.213-0.030-0.436-0.048-0.649-0.048-0.61 0-1.198 0.122-1.751 0.357l-0.492 0.209 1.363-1.363c0.27-0.044 0.549-0.070 0.828-0.074 0.27 0 0.544 0.017 0.823 0.057 2.352 0.327 4.225 2.239 4.517 4.596 0.030 0.248 0.044 0.492 0.044 0.732-0.009 0.971-0.274 1.873-0.736 2.653h0.998c-0.775 0.37-1.607 0.64-2.479 0.793l0.732-1.237z"></path>
<path fill="#000" style="fill: var(--color2, #000)" d="M29.622 13.459h-4.849l0.774-1.313c0.503-0.853 0.703-1.832 0.579-2.833-0.241-1.954-1.828-3.57-3.775-3.843-0.216-0.030-0.435-0.046-0.65-0.046-0.608 0-1.198 0.12-1.752 0.357l-0.49 0.21-10.482 10.482h20.645c0.831 0 1.507-0.676 1.507-1.507s-0.676-1.507-1.507-1.507z"></path>
<path fill="#a0d7dc" style="fill: var(--color15, #a0d7dc)" d="M5.036 19.574c0 0-1.412 0.537-1.84 1.546-0.186 0.439-0.028 0.877 0.277 1.156l1.818-1.818c-0.094-0.504-0.256-0.883-0.256-0.883z"></path>
<path fill="#82acd3" style="fill: var(--color16, #82acd3)" d="M3.473 22.275c0.097 0.088 0.207 0.161 0.328 0.212 0.5 0.212 1.159 0.061 1.403-0.517 0.205-0.483 0.174-1.051 0.087-1.514l-1.818 1.818z"></path>
<path fill="#a0d7dc" style="fill: var(--color15, #a0d7dc)" d="M9.776 23.494c0 0-1.412 0.537-1.84 1.546-0.186 0.439-0.028 0.877 0.277 1.156l1.818-1.818c-0.094-0.504-0.256-0.883-0.256-0.883z"></path>
<path fill="#82acd3" style="fill: var(--color16, #82acd3)" d="M8.213 26.196c0.097 0.088 0.207 0.161 0.328 0.212 0.5 0.212 1.159 0.061 1.403-0.517 0.205-0.483 0.174-1.051 0.087-1.514l-1.818 1.818z"></path>
<path fill="#a0d7dc" style="fill: var(--color15, #a0d7dc)" d="M13.17 19.081c0 0-1.412 0.537-1.84 1.546-0.186 0.439-0.028 0.877 0.277 1.156l1.818-1.818c-0.094-0.504-0.256-0.883-0.256-0.883z"></path>
<path fill="#82acd3" style="fill: var(--color16, #82acd3)" d="M11.608 21.782c0.097 0.088 0.207 0.161 0.328 0.212 0.5 0.212 1.159 0.061 1.403-0.517 0.205-0.483 0.174-1.051 0.088-1.514l-1.818 1.818z"></path>
<path fill="#a0d7dc" style="fill: var(--color15, #a0d7dc)" d="M17.456 23.494c0 0-1.412 0.537-1.84 1.546-0.186 0.439-0.028 0.877 0.277 1.156l1.818-1.818c-0.094-0.504-0.256-0.883-0.256-0.883z"></path>
<path fill="#82acd3" style="fill: var(--color16, #82acd3)" d="M15.893 26.196c0.097 0.088 0.207 0.161 0.328 0.212 0.5 0.212 1.159 0.061 1.403-0.517 0.205-0.483 0.174-1.051 0.087-1.514l-1.818 1.818z"></path>
<path fill="#a0d7dc" style="fill: var(--color15, #a0d7dc)" d="M21.231 19.429c0 0-1.412 0.537-1.84 1.546-0.186 0.439-0.028 0.877 0.277 1.156l1.818-1.818c-0.095-0.504-0.256-0.883-0.256-0.883z"></path>
<path fill="#82acd3" style="fill: var(--color16, #82acd3)" d="M19.668 22.13c0.097 0.088 0.207 0.161 0.328 0.212 0.5 0.212 1.159 0.061 1.403-0.517 0.205-0.483 0.174-1.051 0.087-1.514l-1.818 1.818z"></path>
</symbol>
<symbol id="snow" viewBox="0 0 32 32">
<path fill="#7dd5f4" style="fill: var(--color9, #7dd5f4)" d="M19.531 28.438c0-0.518-0.42-0.938-0.938-0.938h-0.33l0.234-0.234c0.366-0.366 0.366-0.96 0-1.326s-0.96-0.366-1.326 0l-0.234 0.234v-0.362c0-0.518-0.42-0.937-0.938-0.937s-0.938 0.42-0.938 0.937v0.362l-0.256-0.256c-0.366-0.366-0.96-0.366-1.326 0s-0.366 0.96 0 1.326l0.256 0.256h-0.33c-0.518 0-0.938 0.42-0.938 0.938s0.42 0.938 0.938 0.938h0.33l-0.234 0.234c-0.366 0.366-0.366 0.96 0 1.326 0.183 0.183 0.423 0.275 0.663 0.275s0.48-0.092 0.663-0.275l0.234-0.234v0.362c0 0.518 0.42 0.938 0.938 0.938s0.938-0.42 0.938-0.938v-0.362l0.256 0.256c0.183 0.183 0.423 0.275 0.663 0.275s0.48-0.092 0.663-0.275c0.366-0.366 0.366-0.96 0-1.326l-0.256-0.256h0.33c0.518 0 0.938-0.42 0.938-0.938z"></path>
<path fill="#7dd5f4" style="fill: var(--color9, #7dd5f4)" d="M7.063 22.5c0-0.518-0.42-0.938-0.938-0.938h-0.33l0.234-0.234c0.366-0.366 0.366-0.96 0-1.326s-0.96-0.366-1.326 0l-0.234 0.234v-0.362c0-0.518-0.42-0.938-0.938-0.938s-0.938 0.42-0.938 0.938v0.362l-0.256-0.256c-0.366-0.366-0.96-0.366-1.326 0s-0.366 0.96 0 1.326l0.256 0.256h-0.331c-0.518 0-0.938 0.42-0.938 0.938s0.42 0.938 0.938 0.938h0.33l-0.234 0.234c-0.366 0.366-0.366 0.96 0 1.326 0.183 0.183 0.423 0.275 0.663 0.275s0.48-0.091 0.663-0.275l0.234-0.234v0.362c0 0.518 0.42 0.938 0.938 0.938s0.938-0.42 0.938-0.938v-0.362l0.256 0.256c0.183 0.183 0.423 0.275 0.663 0.275s0.48-0.092 0.663-0.275c0.366-0.366 0.366-0.96 0-1.326l-0.256-0.256h0.33c0.518 0 0.938-0.42 0.938-0.938z"></path>
<path fill="#4793ff" style="fill: var(--color10, #4793ff)" d="M32 22.5c0-0.518-0.42-0.938-0.938-0.938h-0.33l0.234-0.234c0.366-0.366 0.366-0.96 0-1.326s-0.96-0.366-1.326 0l-0.234 0.234v-0.362c0-0.518-0.42-0.938-0.938-0.938s-0.938 0.42-0.938 0.938v0.362l-0.256-0.256c-0.366-0.366-0.96-0.366-1.326 0s-0.366 0.96 0 1.326l0.256 0.256h-0.33c-0.518 0-0.938 0.42-0.938 0.938s0.42 0.938 0.938 0.938h0.33l-0.234 0.234c-0.366 0.366-0.366 0.96 0 1.326 0.183 0.183 0.423 0.275 0.663 0.275s0.48-0.091 0.663-0.275l0.234-0.234v0.362c0 0.518 0.42 0.938 0.938 0.938s0.938-0.42 0.938-0.938v-0.362l0.256 0.256c0.183 0.183 0.423 0.275 0.663 0.275s0.48-0.092 0.663-0.275c0.366-0.366 0.366-0.96 0-1.326l-0.256-0.256h0.33c0.518 0 0.938-0.42 0.938-0.938z"></path>
<path fill="#fff4f4" style="fill: var(--color5, #fff4f4)" d="M10.781 23.375c0.516 0 0.938-0.421 0.938-0.938s-0.421-0.938-0.938-0.938-0.938 0.421-0.938 0.938c0 0.516 0.421 0.938 0.938 0.938z"></path>
<path fill="#fff4f4" style="fill: var(--color5, #fff4f4)" d="M21.219 23.375c0.516 0 0.938-0.421 0.938-0.938s-0.421-0.938-0.938-0.938-0.938 0.421-0.938 0.938c0 0.516 0.421 0.938 0.938 0.938z"></path>
<path fill="#fff4f4" style="fill: var(--color5, #fff4f4)" d="M5.688 32c0.516 0 0.938-0.421 0.938-0.938s-0.421-0.938-0.938-0.938c-0.516 0-0.938 0.421-0.938 0.938s0.421 0.938 0.938 0.938z"></path>
<path fill="#fff4f4" style="fill: var(--color5, #fff4f4)" d="M26.313 32c0.516 0 0.938-0.421 0.938-0.938s-0.421-0.938-0.938-0.938c-0.516 0-0.938 0.421-0.938 0.938s0.421 0.938 0.938 0.938z"></path>
<path fill="#fff4f4" style="fill: var(--color5, #fff4f4)" d="M16 19.938c-1.253 0-2.479-0.433-3.452-1.218-0.558-0.45-1.021-1.006-1.364-1.628-0.746 0.503-1.635 0.784-2.553 0.784-2.081 0-3.867-1.416-4.4-3.356-0.988-0.073-1.935-0.466-2.689-1.131-0.98-0.865-1.541-2.111-1.541-3.419 0-2.408 1.875-4.386 4.242-4.551 0.227-0.797 0.669-1.521 1.288-2.095 0.846-0.783 1.947-1.215 3.1-1.215 0.91 0 1.792 0.276 2.535 0.772 0.342-0.629 0.806-1.191 1.367-1.648 0.976-0.794 2.208-1.231 3.468-1.231s2.492 0.437 3.468 1.231c0.561 0.456 1.025 1.019 1.367 1.648 0.743-0.496 1.625-0.772 2.535-0.772 1.153 0 2.254 0.431 3.1 1.215 0.62 0.574 1.062 1.298 1.288 2.096 0.992 0.070 1.943 0.463 2.699 1.131 0.98 0.865 1.543 2.112 1.543 3.42s-0.562 2.553-1.541 3.419c-0.754 0.666-1.701 1.059-2.689 1.131-0.533 1.94-2.319 3.356-4.4 3.356-0.917 0-1.806-0.28-2.553-0.784-0.343 0.622-0.806 1.177-1.364 1.628-0.973 0.786-2.199 1.218-3.452 1.218z"></path>
<path fill="#f6efea" style="fill: var(--color6, #f6efea)" d="M30.457 6.549c-0.757-0.668-1.708-1.061-2.699-1.131-0.227-0.797-0.669-1.522-1.288-2.096-0.846-0.783-1.947-1.215-3.1-1.215-0.91 0-1.792 0.276-2.535 0.772-0.342-0.629-0.805-1.191-1.366-1.648-0.976-0.794-2.208-1.231-3.468-1.231v19.937c1.253 0 2.479-0.433 3.452-1.218 0.558-0.45 1.021-1.006 1.365-1.628 0.746 0.503 1.635 0.784 2.553 0.784 2.081 0 3.867-1.416 4.4-3.356 0.988-0.073 1.935-0.466 2.689-1.131 0.979-0.865 1.541-2.111 1.541-3.419s-0.562-2.555-1.543-3.42z"></path>
<path fill="#4793ff" style="fill: var(--color10, #4793ff)" d="M19.531 28.438c0-0.518-0.42-0.938-0.938-0.938h-0.33l0.234-0.234c0.366-0.366 0.366-0.96 0-1.326s-0.96-0.366-1.326 0l-0.234 0.234v-0.362c0-0.518-0.42-0.937-0.938-0.937v7.125c0.518 0 0.938-0.42 0.938-0.938v-0.362l0.256 0.256c0.183 0.183 0.423 0.275 0.663 0.275s0.48-0.092 0.663-0.275c0.366-0.366 0.366-0.96 0-1.326l-0.256-0.256h0.33c0.518 0 0.938-0.42 0.938-0.937z"></path>
</symbol>
<symbol id="Star" viewBox="0 0 32 32">
<path fill="none" stroke="#7e8691" style="stroke: var(--color17, #7e8691)" stroke-linejoin="miter" stroke-linecap="butt" stroke-miterlimit="4" stroke-width="1.4545" d="M16 3.808l3.064 9.429h9.915l-8.021 5.828 0.163 0.503 2.901 8.927-8.021-5.828-8.021 5.828 3.064-9.43-8.021-5.828h9.915l3.064-9.429z"></path>
</symbol>
<symbol id="sun" viewBox="0 0 32 32">
<path fill="#fdbf00" style="fill: var(--color3, #fdbf00)" d="M16 24.688c-4.79 0-8.688-3.897-8.688-8.688s3.897-8.688 8.688-8.688c4.79 0 8.688 3.897 8.688 8.688s-3.897 8.688-8.688 8.688z"></path>
<path fill="#fdbf00" style="fill: var(--color3, #fdbf00)" d="M16 5.103c-0.518 0-0.938-0.42-0.938-0.938v-3.228c0-0.518 0.42-0.938 0.938-0.938s0.938 0.42 0.938 0.938v3.228c0 0.518-0.42 0.938-0.938 0.938z"></path>
<path fill="#ff8856" style="fill: var(--color4, #ff8856)" d="M31.063 16.938h-3.228c-0.518 0-0.938-0.42-0.938-0.938s0.42-0.938 0.938-0.938h3.228c0.518 0 0.938 0.42 0.938 0.938s-0.42 0.938-0.938 0.938z"></path>
<path fill="#fdbf00" style="fill: var(--color3, #fdbf00)" d="M16 32c-0.518 0-0.938-0.42-0.938-0.938v-3.228c0-0.518 0.42-0.938 0.938-0.938s0.938 0.42 0.938 0.938v3.228c0 0.518-0.42 0.938-0.938 0.938z"></path>
<path fill="#fdbf00" style="fill: var(--color3, #fdbf00)" d="M4.165 16.938h-3.228c-0.518 0-0.938-0.42-0.938-0.938s0.42-0.938 0.938-0.938h3.228c0.518 0 0.938 0.42 0.938 0.938s-0.42 0.938-0.938 0.938z"></path>
<path fill="#ff8856" style="fill: var(--color4, #ff8856)" d="M24.369 8.569c-0.24 0-0.48-0.091-0.663-0.275-0.366-0.366-0.366-0.96 0-1.326l2.282-2.282c0.366-0.366 0.96-0.366 1.326 0s0.366 0.96 0 1.326l-2.282 2.282c-0.183 0.183-0.423 0.275-0.663 0.275z"></path>
<path fill="#ff8856" style="fill: var(--color4, #ff8856)" d="M26.651 27.588c-0.24 0-0.48-0.092-0.663-0.275l-2.282-2.282c-0.366-0.366-0.366-0.96 0-1.326s0.96-0.366 1.326 0l2.282 2.282c0.366 0.366 0.366 0.96 0 1.326-0.183 0.183-0.423 0.275-0.663 0.275z"></path>
<path fill="#fdbf00" style="fill: var(--color3, #fdbf00)" d="M5.349 27.588c-0.24 0-0.48-0.092-0.663-0.275-0.366-0.366-0.366-0.96 0-1.326l2.282-2.282c0.366-0.366 0.96-0.366 1.326 0s0.366 0.96 0 1.326l-2.282 2.282c-0.183 0.183-0.423 0.275-0.663 0.275z"></path>
<path fill="#fdbf00" style="fill: var(--color3, #fdbf00)" d="M7.631 8.569c-0.24 0-0.48-0.091-0.663-0.275l-2.282-2.282c-0.366-0.366-0.366-0.96 0-1.326s0.96-0.366 1.326 0l2.282 2.282c0.366 0.366 0.366 0.96 0 1.326-0.183 0.183-0.423 0.275-0.663 0.275z"></path>
<path fill="#ff8856" style="fill: var(--color4, #ff8856)" d="M20.541 6.009c-0.12 0-0.242-0.023-0.359-0.072-0.478-0.199-0.705-0.747-0.506-1.226l1.239-2.981c0.199-0.478 0.748-0.705 1.226-0.506s0.705 0.747 0.506 1.226l-1.239 2.981c-0.15 0.36-0.499 0.578-0.866 0.578z"></path>
<path fill="#ff8856" style="fill: var(--color4, #ff8856)" d="M29.909 22.718c-0.12 0-0.242-0.023-0.36-0.072l-2.98-1.239c-0.478-0.199-0.705-0.747-0.506-1.226s0.747-0.705 1.226-0.506l2.981 1.239c0.478 0.199 0.705 0.747 0.506 1.225-0.15 0.36-0.499 0.578-0.866 0.578z"></path>
<path fill="#fdbf00" style="fill: var(--color3, #fdbf00)" d="M10.219 30.847c-0.12 0-0.242-0.023-0.36-0.072-0.478-0.199-0.705-0.747-0.506-1.225l1.239-2.981c0.199-0.478 0.747-0.705 1.226-0.506s0.705 0.747 0.506 1.226l-1.239 2.98c-0.15 0.36-0.499 0.578-0.866 0.578z"></path>
<path fill="#fdbf00" style="fill: var(--color3, #fdbf00)" d="M5.071 12.396c-0.12 0-0.242-0.023-0.359-0.072l-2.981-1.239c-0.478-0.199-0.705-0.747-0.506-1.226s0.747-0.704 1.226-0.506l2.981 1.239c0.478 0.199 0.705 0.747 0.506 1.226-0.15 0.361-0.499 0.578-0.866 0.578z"></path>
<path fill="#ff8856" style="fill: var(--color4, #ff8856)" d="M26.94 12.421c-0.368 0-0.718-0.219-0.867-0.58-0.198-0.479 0.030-1.027 0.509-1.224l2.983-1.232c0.478-0.197 1.027 0.030 1.224 0.509s-0.030 1.027-0.509 1.224l-2.983 1.232c-0.117 0.048-0.238 0.071-0.357 0.071z"></path>
<path fill="#ff8856" style="fill: var(--color4, #ff8856)" d="M21.748 30.861c-0.368 0-0.718-0.218-0.867-0.58l-1.232-2.983c-0.198-0.479 0.030-1.027 0.509-1.224s1.027 0.030 1.224 0.509l1.232 2.983c0.198 0.479-0.030 1.027-0.509 1.224-0.117 0.048-0.238 0.071-0.357 0.071z"></path>
<path fill="#fdbf00" style="fill: var(--color3, #fdbf00)" d="M2.078 22.685c-0.368 0-0.718-0.218-0.867-0.58-0.198-0.479 0.030-1.027 0.509-1.224l2.983-1.232c0.479-0.198 1.027 0.030 1.224 0.509s-0.030 1.027-0.509 1.224l-2.983 1.232c-0.117 0.048-0.238 0.071-0.357 0.071z"></path>
<path fill="#fdbf00" style="fill: var(--color3, #fdbf00)" d="M11.484 5.999c-0.368 0-0.718-0.218-0.867-0.58l-1.232-2.983c-0.198-0.479 0.030-1.027 0.509-1.224s1.027 0.030 1.224 0.509l1.232 2.983c0.198 0.479-0.030 1.027-0.509 1.224-0.117 0.048-0.238 0.071-0.357 0.071z"></path>
<path fill="#ff8856" style="fill: var(--color4, #ff8856)" d="M16 0v5.103c0.518 0 0.938-0.42 0.938-0.938v-3.228c0-0.518-0.42-0.938-0.938-0.938z"></path>
<path fill="#ff8856" style="fill: var(--color4, #ff8856)" d="M16 7.313v17.375c4.79 0 8.688-3.897 8.688-8.688s-3.897-8.688-8.688-8.688z"></path>
<path fill="#ff8856" style="fill: var(--color4, #ff8856)" d="M16 26.897v5.103c0.518 0 0.938-0.42 0.938-0.938v-3.228c0-0.518-0.42-0.938-0.938-0.938z"></path>
</symbol>
<symbol id="sunrise" viewBox="0 0 32 32">
<path d="M16 5.103c0.518 0 0.938-0.42 0.938-0.938v-3.228c0-0.518-0.42-0.938-0.938-0.938s-0.938 0.42-0.938 0.938v3.228c0 0.518 0.42 0.938 0.938 0.938z"></path>
<path d="M31.063 15.063h-3.228c-0.518 0-0.938 0.42-0.938 0.938s0.42 0.938 0.938 0.938h3.228c0.518 0 0.938-0.42 0.938-0.938s-0.42-0.938-0.938-0.938z"></path>
<path d="M5.103 16c0-0.518-0.42-0.938-0.938-0.938h-3.228c-0.518 0-0.938 0.42-0.938 0.938s0.42 0.938 0.938 0.938h3.228c0.518 0 0.938-0.42 0.938-0.938z"></path>
<path d="M24.368 8.569c0.24 0 0.48-0.092 0.663-0.275l2.282-2.282c0.366-0.366 0.366-0.96 0-1.326s-0.96-0.366-1.326 0l-2.282 2.282c-0.366 0.366-0.366 0.96 0 1.326 0.183 0.183 0.423 0.275 0.663 0.275z"></path>
<path d="M25.031 23.705c-0.366-0.366-0.96-0.366-1.326 0s-0.366 0.96 0 1.326l2.282 2.282c0.183 0.183 0.423 0.275 0.663 0.275s0.48-0.092 0.663-0.275c0.366-0.366 0.366-0.96 0-1.326l-2.282-2.282z"></path>
<path d="M6.969 23.705l-2.282 2.282c-0.366 0.366-0.366 0.96 0 1.326 0.183 0.183 0.423 0.275 0.663 0.275s0.48-0.092 0.663-0.275l2.282-2.282c0.366-0.366 0.366-0.96 0-1.326s-0.96-0.366-1.326 0z"></path>
<path d="M6.969 8.294c0.183 0.183 0.423 0.275 0.663 0.275s0.48-0.092 0.663-0.275c0.366-0.366 0.366-0.96 0-1.326l-2.282-2.282c-0.366-0.366-0.96-0.366-1.326 0s-0.366 0.96 0 1.326l2.282 2.282z"></path>
<path d="M20.182 5.937c0.118 0.049 0.239 0.072 0.359 0.072 0.367 0 0.716-0.217 0.866-0.578l1.239-2.981c0.199-0.478-0.028-1.027-0.506-1.226s-1.027 0.028-1.225 0.506l-1.239 2.981c-0.199 0.478 0.028 1.027 0.506 1.225z"></path>
<path d="M30.269 20.915l-2.981-1.239c-0.478-0.199-1.027 0.028-1.226 0.506s0.028 1.027 0.506 1.226l2.98 1.239c0.118 0.049 0.24 0.072 0.36 0.072 0.367 0 0.716-0.217 0.866-0.578 0.199-0.478-0.028-1.027-0.506-1.226z"></path>
<path d="M11.818 26.063c-0.478-0.199-1.027 0.028-1.226 0.506l-1.239 2.98c-0.199 0.478 0.028 1.027 0.506 1.226 0.118 0.049 0.239 0.072 0.359 0.072 0.367 0 0.716-0.218 0.866-0.578l1.239-2.981c0.199-0.478-0.028-1.027-0.506-1.225z"></path>
<path d="M1.731 11.085l2.981 1.239c0.118 0.049 0.239 0.072 0.359 0.072 0.367 0 0.716-0.217 0.866-0.578 0.199-0.478-0.028-1.027-0.506-1.226l-2.981-1.239c-0.478-0.199-1.027 0.028-1.226 0.506s0.028 1.027 0.506 1.226z"></path>
<path d="M26.073 11.841c0.149 0.362 0.499 0.58 0.867 0.58 0.119 0 0.24-0.023 0.357-0.071l2.983-1.232c0.479-0.198 0.706-0.746 0.509-1.224s-0.746-0.706-1.224-0.509l-2.983 1.232c-0.479 0.198-0.706 0.746-0.509 1.224z"></path>
<path d="M21.383 26.582c-0.198-0.479-0.746-0.706-1.224-0.509s-0.706 0.746-0.509 1.224l1.232 2.983c0.149 0.362 0.499 0.58 0.867 0.58 0.119 0 0.24-0.023 0.357-0.071 0.479-0.198 0.706-0.746 0.509-1.224l-1.232-2.983z"></path>
<path d="M5.927 20.159c-0.198-0.479-0.746-0.706-1.224-0.509l-2.983 1.232c-0.479 0.198-0.706 0.746-0.509 1.224 0.149 0.362 0.499 0.58 0.867 0.58 0.119 0 0.24-0.023 0.357-0.071l2.983-1.232c0.479-0.198 0.706-0.746 0.509-1.224z"></path>
<path d="M10.617 5.419c0.149 0.362 0.499 0.58 0.867 0.58 0.119 0 0.24-0.023 0.357-0.071 0.479-0.198 0.706-0.746 0.509-1.224l-1.232-2.983c-0.198-0.479-0.746-0.706-1.224-0.509s-0.706 0.746-0.509 1.224l1.232 2.983z"></path>
<path d="M16.938 24.637c4.351-0.469 7.75-4.163 7.75-8.637 0-4.79-3.897-8.688-8.688-8.688s-8.688 3.897-8.688 8.688c0 4.474 3.399 8.168 7.75 8.637v6.426c0 0.518 0.42 0.938 0.938 0.938s0.938-0.42 0.938-0.938v-6.426zM9.187 16c0-3.756 3.056-6.813 6.813-6.813s6.813 3.056 6.813 6.813c0 3.438-2.561 6.289-5.875 6.748v-3.578l0.212 0.212c0.366 0.366 0.96 0.366 1.326 0s0.366-0.96 0-1.326l-1.817-1.817c-0.363-0.362-0.949-0.367-1.316-0.009l-1.875 1.822c-0.371 0.361-0.38 0.954-0.019 1.326 0.184 0.189 0.428 0.284 0.673 0.284 0.235 0 0.471-0.088 0.653-0.265l0.289-0.281v3.633c-3.314-0.458-5.875-3.309-5.875-6.748z"></path>
</symbol>
<symbol id="sunset" viewBox="0 0 32 32">
<path d="M16 5.103c0.518 0 0.938-0.42 0.938-0.938v-3.228c0-0.518-0.42-0.938-0.938-0.938s-0.938 0.42-0.938 0.938v3.228c0 0.518 0.42 0.938 0.938 0.938z"></path>
<path d="M31.063 15.063h-3.228c-0.518 0-0.938 0.42-0.938 0.938s0.42 0.938 0.938 0.938h3.228c0.518 0 0.938-0.42 0.938-0.938s-0.42-0.938-0.938-0.938z"></path>
<path d="M5.103 16c0-0.518-0.42-0.938-0.938-0.938h-3.228c-0.518 0-0.938 0.42-0.938 0.938s0.42 0.938 0.938 0.938h3.228c0.518 0 0.938-0.42 0.938-0.938z"></path>
<path d="M24.368 8.569c0.24 0 0.48-0.092 0.663-0.275l2.282-2.282c0.366-0.366 0.366-0.96 0-1.326s-0.96-0.366-1.326 0l-2.282 2.282c-0.366 0.366-0.366 0.96 0 1.326 0.183 0.183 0.423 0.275 0.663 0.275z"></path>
<path d="M25.031 23.705c-0.366-0.366-0.96-0.366-1.326 0s-0.366 0.96 0 1.326l2.282 2.282c0.183 0.183 0.423 0.275 0.663 0.275s0.48-0.092 0.663-0.275c0.366-0.366 0.366-0.96 0-1.326l-2.282-2.282z"></path>
<path d="M6.969 23.705l-2.282 2.282c-0.366 0.366-0.366 0.96 0 1.326 0.183 0.183 0.423 0.275 0.663 0.275s0.48-0.092 0.663-0.275l2.282-2.282c0.366-0.366 0.366-0.96 0-1.326s-0.96-0.366-1.326 0z"></path>
<path d="M6.969 8.294c0.183 0.183 0.423 0.275 0.663 0.275s0.48-0.092 0.663-0.275c0.366-0.366 0.366-0.96 0-1.326l-2.282-2.282c-0.366-0.366-0.96-0.366-1.326 0s-0.366 0.96 0 1.326l2.282 2.282z"></path>
<path d="M20.182 5.937c0.118 0.049 0.239 0.072 0.359 0.072 0.367 0 0.716-0.217 0.866-0.578l1.239-2.981c0.199-0.478-0.028-1.027-0.506-1.226s-1.027 0.028-1.225 0.506l-1.239 2.981c-0.199 0.478 0.028 1.027 0.506 1.225z"></path>
<path d="M30.269 20.915l-2.98-1.239c-0.478-0.199-1.027 0.028-1.226 0.506s0.028 1.027 0.506 1.226l2.98 1.239c0.118 0.049 0.24 0.072 0.359 0.072 0.367 0 0.716-0.217 0.866-0.578 0.199-0.478-0.028-1.027-0.506-1.226z"></path>
<path d="M11.818 26.063c-0.478-0.199-1.027 0.028-1.226 0.506l-1.239 2.98c-0.199 0.478 0.028 1.027 0.506 1.226 0.118 0.049 0.24 0.072 0.36 0.072 0.367 0 0.716-0.218 0.866-0.578l1.239-2.98c0.199-0.478-0.028-1.027-0.506-1.226z"></path>
<path d="M1.731 11.085l2.981 1.239c0.118 0.049 0.239 0.072 0.359 0.072 0.367 0 0.716-0.217 0.866-0.578 0.199-0.478-0.028-1.027-0.506-1.226l-2.981-1.239c-0.478-0.199-1.027 0.028-1.226 0.506s0.028 1.027 0.506 1.226z"></path>
<path d="M26.073 11.841c0.149 0.362 0.499 0.58 0.867 0.58 0.119 0 0.24-0.023 0.357-0.071l2.983-1.232c0.479-0.198 0.706-0.746 0.509-1.224s-0.746-0.706-1.224-0.509l-2.983 1.232c-0.479 0.198-0.706 0.746-0.509 1.224z"></path>
<path d="M21.383 26.582c-0.198-0.479-0.746-0.706-1.224-0.509s-0.706 0.746-0.509 1.224l1.232 2.983c0.149 0.361 0.499 0.58 0.867 0.58 0.119 0 0.24-0.023 0.357-0.071 0.479-0.198 0.706-0.746 0.509-1.224l-1.232-2.983z"></path>
<path d="M5.927 20.158c-0.198-0.479-0.746-0.706-1.224-0.509l-2.983 1.232c-0.479 0.198-0.706 0.746-0.509 1.224 0.149 0.362 0.499 0.58 0.867 0.58 0.119 0 0.24-0.023 0.357-0.071l2.983-1.232c0.479-0.198 0.706-0.746 0.509-1.224z"></path>
<path d="M10.617 5.419c0.149 0.362 0.499 0.58 0.867 0.58 0.119 0 0.24-0.023 0.357-0.071 0.479-0.198 0.706-0.746 0.509-1.224l-1.232-2.983c-0.198-0.479-0.746-0.706-1.224-0.509s-0.706 0.746-0.509 1.224l1.232 2.983z"></path>
<path d="M17.15 28.582l-0.212 0.212v-4.158c4.351-0.469 7.75-4.163 7.75-8.637 0-4.79-3.897-8.688-8.688-8.688s-8.688 3.897-8.688 8.688c0 4.474 3.399 8.168 7.75 8.637v4.213l-0.289-0.281c-0.371-0.361-0.965-0.352-1.326 0.019s-0.352 0.965 0.019 1.326l1.875 1.822c0.182 0.177 0.418 0.265 0.653 0.265 0.24 0 0.48-0.092 0.663-0.275l1.817-1.817c0.366-0.366 0.366-0.96 0-1.326s-0.96-0.366-1.326-0zM9.187 16c0-3.756 3.056-6.813 6.813-6.813s6.813 3.056 6.813 6.813c0 3.438-2.561 6.289-5.875 6.748v-2.225c0-0.518-0.42-0.938-0.938-0.938s-0.938 0.42-0.938 0.938v2.225c-3.314-0.458-5.875-3.309-5.875-6.748z"></path>
</symbol>
<symbol id="wind" viewBox="0 0 32 32">
<path d="M25.316 2.643c-1.516 0-3.002 0.523-4.185 1.472-0.404 0.324-0.468 0.914-0.144 1.318s0.914 0.468 1.318 0.144c0.851-0.683 1.92-1.059 3.011-1.059 2.652 0 4.809 2.157 4.809 4.809s-2.158 4.809-4.809 4.809h-17.628c-0.518 0-0.938 0.42-0.938 0.938s0.42 0.938 0.938 0.938h17.628c3.686 0 6.684-2.999 6.684-6.684s-2.999-6.684-6.684-6.684v0z"></path>
<path d="M5.891 12.268h10.015c0.518 0 0.938-0.42 0.938-0.938s-0.42-0.938-0.938-0.938h-10.015c-0.518 0-0.938 0.42-0.938 0.938s0.42 0.938 0.938 0.938v0z"></path>
<path d="M15.643 17.893h-14.706c-0.518 0-0.938 0.42-0.938 0.938s0.42 0.938 0.938 0.938h14.706c2.127 0 3.857 1.73 3.857 3.857s-1.73 3.857-3.857 3.857c-0.875 0-1.732-0.302-2.414-0.849-0.404-0.324-0.994-0.26-1.318 0.144s-0.26 0.994 0.144 1.318c1.014 0.814 2.288 1.262 3.588 1.262 3.16 0 5.732-2.571 5.732-5.732s-2.571-5.732-5.732-5.732v0z"></path>
<path d="M0.938 12.268h1.265c0.518 0 0.938-0.42 0.938-0.938s-0.42-0.938-0.938-0.938h-1.265c-0.518 0-0.938 0.42-0.938 0.938s0.42 0.938 0.938 0.938z"></path>
<path d="M12.25 22.563c0-0.518-0.42-0.938-0.938-0.938h-5.625c-0.518 0-0.938 0.42-0.938 0.938s0.42 0.938 0.938 0.938h5.625c0.518 0 0.938-0.42 0.938-0.938z"></path>
</symbol>
</defs>
</svg>
